<?xml version="1.0" encoding="UTF-8"?>
<!DOCTYPE svg PUBLIC "-//W3C//DTD SVG 1.1//EN" "http://www.w3.org/Graphics/SVG/1.1/DTD/svg11.dtd">
<!-- Creator: CorelDRAW -->
<svg xmlns="http://www.w3.org/2000/svg" xml:space="preserve" width="127.26mm" height="175.968mm" version="1.1" style="shape-rendering:geometricPrecision; text-rendering:geometricPrecision; image-rendering:optimizeQuality; fill-rule:evenodd; clip-rule:evenodd"
viewBox="0 0 12750.55 17630.78"
 xmlns:xlink="http://www.w3.org/1999/xlink"
 xmlns:xodm="http://www.corel.com/coreldraw/odm/2003">
 <defs>
  <style type="text/css">
   <![CDATA[
    .fil0 {fill:#373435}
   ]]>
  </style>
 </defs>
 <g id="Capa_x0020_1">
  <metadata id="CorelCorpID_0Corel-Layer"/>
  <path class="fil0" d="M330.5 13944.19c794.47,-40.26 1346.74,-108.26 1949.4,294.05 461.08,307.82 673.12,775 590.88,1576.88 -113.91,405.55 -337.1,689.86 -697.9,914.13 -372.75,231.74 -1085.15,309.71 -1509.33,209.07l24.26 -2664.49 -667.31 -36.51 27.74 3350.82 1555.69 -17.88c936.41,-130.53 1870.19,-878.65 1907.89,-1867.05 12.58,-1068.93 -245.8,-1589.99 -912.03,-2033.01 -772.27,-513.54 -1608.43,-390.92 -2599.79,-399.23l11.67 660.41 318.82 12.8z"/>
  <path class="fil0" d="M9088.02 15531.33c39.82,1448.96 1653.09,2378.93 2925.11,2023.61 159.63,-44.6 536.94,-178.95 682.68,-265.17l-290.57 -605.06c-254.17,146.54 -448.9,257.2 -771.07,300.54 -851.03,114.53 -1826.1,-509.49 -1918.03,-1398.46 44.49,-794.47 326.85,-1220.3 847.78,-1499.82 906.45,-486.37 1479.89,-31.38 1789.32,93.28l397.3 -507.66c-733.54,-716.23 -3663.37,-647.95 -3662.52,1858.73z"/>
  <path class="fil0" d="M4110.33 13911.96l2158.13 3315.22c292.33,-222.23 1713.79,-2459.01 1968.77,-2866.5 142.04,-227.01 173.53,-203.88 329.24,-381.69 18.17,-236.53 72.15,-609.62 -21.19,-790.96 -124.21,110.77 -124.38,171.31 -298.77,317.62 -463.19,388.47 -1725.53,2441.3 -1965.07,2631.11 -189.65,-201.32 -781.66,-1228.85 -1026.33,-1545.33l-1174.06 -1452.21 29.28 772.72z"/>
  <polygon class="fil0" points="4719.82,15454.44 4090.91,14544.58 4078.6,17619.3 4673.92,17621.4 "/>
  <polygon class="fil0" points="7895.86,15454.44 8555.13,14595.15 8537.07,17619.13 7941.76,17621.4 "/>
  <path class="fil0" d="M1004.8 3417.62l5294.76 -2807.21 21.75 11.39 0 4.33 4.16 -2.16 4.16 2.16 0 -4.33 21.75 -11.39 5294.76 2807.21c116.87,55.76 263.34,102.4 353.21,163.97l-4888.63 2710.05c338.23,343.02 201.27,363.98 238.17,986.07 65.27,1100.87 28.13,2638.06 19.54,3770.6l453.96 -180.02 18 -3517.91c-5.64,-192.84 -8.61,-386.07 -37.99,-432.49 -74.71,-118.06 -202.29,-139.7 -420.47,-253.38l3475.71 -1872.58c236.01,-133.32 955.99,-508.8 1200.95,-585.01l37.41 4729.79c1.48,180.2 -142.37,374.52 -300.36,457.67l-434.04 52.73c-245.4,205.37 -1027.41,574.31 -1367.24,751.08l-3548.89 1944.11 39.35 584.1c194.21,-37.13 1242.58,-664.51 1474.48,-804.72l2225 -1197.93c702.84,-315.57 1625.23,-890.27 2335.3,-1077.36 114.25,-123.59 80.42,-86.91 89.24,-323.42 61.97,-1664.59 -30.41,-3982.81 -3.3,-5747.29l43.16 -256.86 -6319.09 -3314.42 0 -4.39 -4.16 2.16 -4.16 -2.16 0 4.39 -6319.09 3314.42 43.16 256.86c27.11,1764.48 -65.27,4082.7 -3.3,5747.29 8.83,236.52 -25.01,199.84 89.24,323.42 710.08,187.09 1632.47,761.79 2335.3,1077.36l2225 1197.93c231.91,140.21 1280.28,767.59 1474.48,804.72l39.35 -584.1 -3548.89 -1944.11c-339.83,-176.77 -1121.83,-545.71 -1367.24,-751.08l-434.04 -52.73c-157.98,-83.15 -301.84,-277.48 -300.36,-457.67l37.42 -4729.79c244.94,76.21 964.93,451.69 1200.94,585.01l3475.71 1872.58c-218.18,113.68 -345.76,135.32 -420.47,253.38 -29.39,46.42 -32.35,239.65 -37.99,432.49l18 3517.91 453.96 180.02c-8.6,-1132.54 -45.73,-2669.73 19.54,-3770.6 36.9,-622.09 -100.06,-643.05 238.17,-986.07l-4888.63 -2710.05c89.87,-61.57 236.35,-108.21 353.21,-163.97zm5926.07 2937.34c131.27,688.27 101.66,4427.44 63.67,5285.01 -233.22,55.48 -299.06,89.59 -463.81,177.81l-21.7 -5249.65 421.84 -213.17zm4164.77 2187.18l21.58 -3297.85c74.27,-165.84 330.21,-322.86 497.02,-399.12l-5.8 663.89 -11.22 3250.75c-250.47,35.54 -382.44,-64.24 -501.58,-217.67zm-2386.9 1083.85l1944.28 -988.63c108.49,-55.19 151.03,-106.04 206.11,-108.83 182.18,-9.17 271.37,172.1 504.47,309.82l-3147.78 1678.94c-52.11,-707.11 76.77,-3358.51 -50.58,-3750.9 360.33,-243.47 915.27,-516.67 1328.23,-735.88 459.49,-243.86 895.86,-470.71 1335.18,-705.8 7.62,9.57 12.99,25.35 16,33.14 3.02,7.92 11.5,24.27 14.98,34.35l23.58 76.2c3.59,13.96 21.13,114.76 22.66,125.58 19.94,141.64 34.24,69.88 6.55,236.41 -109.23,96.54 -929.79,489.61 -1123.38,593.32 -237.83,127.46 -909.86,490.13 -1032.08,619.57 -49.55,60.15 -67.88,155.2 -68.17,156.39 -45.39,195.98 14.07,2211.55 19.94,2426.32zm-2341.52 -8552.16l4713.84 2555.94 -4751.43 2584.18 0 4.5 -4.16 -2.27 -4.16 2.27 0 -4.5 -4751.43 -2584.18 4713.84 -2555.94 41.75 21.64 41.75 -21.64zm-41.75 4511.55l2747.53 -1402.72c-292.62,-187.2 -2587.44,-1476.08 -2747.53,-1492.65 -160.09,16.57 -2454.9,1305.45 -2747.53,1492.65l2747.53 1402.72zm0 -3439.15c122.62,-10.02 276.9,57.8 616.5,283.23 264.2,175.41 589,335.5 863.68,485.97 408.07,223.48 1497.89,756.83 1746.32,995l607.5 -307.19 -3833.99 -1983.12 -3833.99 1983.12 607.5 307.19c248.43,-238.17 1338.25,-771.52 1746.32,-995 274.68,-150.47 599.48,-310.56 863.68,-485.97 339.59,-225.42 493.88,-293.25 616.5,-283.23zm-613.71 4208.74c-131.27,688.27 -101.66,4427.44 -63.67,5285.01 233.22,55.48 299.06,89.59 463.81,177.81l21.7 -5249.65 -421.84 -213.17zm-4156.46 2187.18l-21.58 -3297.85c-74.27,-165.84 -330.21,-322.86 -497.02,-399.12l5.8 663.89 11.22 3250.75c250.47,35.54 382.44,-64.24 501.58,-217.67zm2386.9 1083.85l-1944.27 -988.63c-108.5,-55.19 -151.04,-106.04 -206.12,-108.83 -182.18,-9.17 -271.37,172.1 -504.47,309.82l3147.78 1678.94c52.11,-707.11 -76.77,-3358.51 50.58,-3750.9 -360.33,-243.47 -915.27,-516.67 -1328.23,-735.88 -459.49,-243.86 -895.86,-470.71 -1335.18,-705.8 -7.62,9.57 -12.99,25.35 -16,33.14 -3.02,7.92 -11.5,24.27 -14.98,34.35l-23.58 76.2c-3.59,13.96 -21.13,114.76 -22.66,125.58 -19.94,141.64 -34.24,69.88 -6.55,236.41 109.23,96.54 929.79,489.61 1123.38,593.32 237.83,127.46 909.86,490.13 1032.08,619.57 49.55,60.15 67.88,155.2 68.17,156.39 45.39,195.98 -14.07,2211.55 -19.94,2426.32z"/>
 </g>
</svg>
